<svg width="12" height="16" viewBox="0 0 12 16" fill="none" xmlns="http://www.w3.org/2000/svg">
<path d="M5.43287 0.171094C5.77662 -0.0570312 6.22662 -0.0570312 6.57037 0.171094L7.12662 0.536719C7.31412 0.658594 7.53287 0.717969 7.75474 0.705469L8.42037 0.664844C8.83287 0.639844 9.22037 0.864844 9.40474 1.23359L9.70474 1.83047C9.80474 2.03047 9.96724 2.18984 10.1641 2.28984L10.7672 2.59297C11.136 2.77734 11.361 3.16484 11.336 3.57734L11.2954 4.24297C11.2829 4.46484 11.3422 4.68672 11.4641 4.87109L11.8329 5.42734C12.061 5.77109 12.061 6.22109 11.8329 6.56484L11.4641 7.12422C11.3422 7.31172 11.2829 7.53047 11.2954 7.75234L11.336 8.41797C11.361 8.83047 11.136 9.21797 10.7672 9.40234L10.1704 9.70234C9.97037 9.80234 9.81099 9.96484 9.71099 10.1617L9.40787 10.7648C9.22349 11.1336 8.83599 11.3586 8.42349 11.3336L7.75787 11.293C7.53599 11.2805 7.31412 11.3398 7.12974 11.4617L6.57349 11.8305C6.22974 12.0586 5.77974 12.0586 5.43599 11.8305L4.87662 11.4617C4.68912 11.3398 4.47037 11.2805 4.24849 11.293L3.58287 11.3336C3.17037 11.3586 2.78287 11.1336 2.59849 10.7648L2.29849 10.168C2.19849 9.96797 2.03599 9.80859 1.83912 9.70859L1.23599 9.40547C0.867241 9.22109 0.642241 8.83359 0.667241 8.42109L0.707866 7.75547C0.720366 7.53359 0.660991 7.31172 0.539116 7.12734L0.173491 6.56797C-0.0546336 6.22422 -0.0546336 5.77422 0.173491 5.43047L0.539116 4.87422C0.660991 4.68672 0.720366 4.46797 0.707866 4.24609L0.667241 3.58047C0.642241 3.16797 0.867241 2.78047 1.23599 2.59609L1.83287 2.29609C2.03287 2.19297 2.19537 2.03047 2.29537 1.83047L2.59537 1.23359C2.77974 0.864844 3.16724 0.639844 3.57974 0.664844L4.24537 0.705469C4.46724 0.717969 4.68912 0.658594 4.87349 0.536719L5.43287 0.171094ZM8.50162 5.99922C8.50162 5.33618 8.23822 4.70029 7.76938 4.23145C7.30054 3.76261 6.66466 3.49922 6.00162 3.49922C5.33858 3.49922 4.70269 3.76261 4.23385 4.23145C3.76501 4.70029 3.50162 5.33618 3.50162 5.99922C3.50162 6.66226 3.76501 7.29814 4.23385 7.76699C4.70269 8.23583 5.33858 8.49922 6.00162 8.49922C6.66466 8.49922 7.30054 8.23583 7.76938 7.76699C8.23822 7.29814 8.50162 6.66226 8.50162 5.99922ZM0.0422414 13.8055L1.38912 10.6023C1.39537 10.6055 1.39849 10.6086 1.40162 10.6148L1.70162 11.2117C2.06724 11.9367 2.82662 12.3773 3.63912 12.3305L4.30474 12.2898C4.31099 12.2898 4.32037 12.2898 4.32662 12.2961L4.88287 12.6648C5.04224 12.768 5.21099 12.8492 5.38599 12.9055L4.21099 15.6961C4.13912 15.868 3.97974 15.9836 3.79537 15.9992C3.61099 16.0148 3.43287 15.9305 3.33287 15.7742L2.32662 14.2336L0.573491 14.493C0.395366 14.518 0.217241 14.4461 0.104741 14.3055C-0.00775862 14.1648 -0.0296336 13.9711 0.0391164 13.8055H0.0422414ZM7.79224 15.693L6.61724 12.9055C6.79224 12.8492 6.96099 12.7711 7.12037 12.6648L7.67662 12.2961C7.68287 12.293 7.68912 12.2898 7.69849 12.2898L8.36412 12.3305C9.17662 12.3773 9.93599 11.9367 10.3016 11.2117L10.6016 10.6148C10.6047 10.6086 10.6079 10.6055 10.6141 10.6023L11.9641 13.8055C12.0329 13.9711 12.0079 14.1617 11.8985 14.3055C11.7891 14.4492 11.6079 14.5211 11.4297 14.493L9.67662 14.2336L8.67037 15.7711C8.57037 15.9273 8.39224 16.0117 8.20787 15.9961C8.02349 15.9805 7.86412 15.8617 7.79224 15.693Z" fill="#D4AF37"/>
</svg>
