<svg width="16" height="14" viewBox="0 0 16 14" fill="none" xmlns="http://www.w3.org/2000/svg">
<path d="M8.5 2.00235C6.04375 2.00235 3.96563 3.61173 3.25938 5.83048C4.30937 5.29923 5.49375 5.00235 6.75 5.00235H9.5C9.775 5.00235 10 5.22735 10 5.50235C10 5.77735 9.775 6.00235 9.5 6.00235H9H6.75C6.23125 6.00235 5.72813 6.06173 5.24375 6.1711C4.43438 6.35548 3.68125 6.6836 3.0125 7.13048C1.19688 8.33985 0 10.4055 0 12.7524V13.2524C0 13.668 0.334375 14.0024 0.75 14.0024C1.16562 14.0024 1.5 13.668 1.5 13.2524V12.7524C1.5 11.2305 2.14688 9.86173 3.18125 8.90235C3.8 11.2617 5.94688 13.0024 8.5 13.0024H8.53125C12.6594 12.9805 16 8.91173 16 3.8961C16 2.56485 15.7656 1.29923 15.3406 0.158602C15.2594 -0.0570225 14.9438 -0.0476475 14.8344 0.155478C14.2469 1.25548 13.0844 2.00235 11.75 2.00235H8.5Z" fill="#16A34A"/>
</svg>
